<svg width="338" height="305" viewBox="0 0 338 305" fill="none" xmlns="http://www.w3.org/2000/svg">
<rect x="189" y="190" width="80" height="10" fill="white"/>
<rect x="259" y="120" width="10" height="80" fill="white"/>
<rect x="69" y="190" width="80" height="10" fill="white"/>
<rect x="69" y="120" width="10" height="80" fill="white"/>
<rect x="79" width="80" height="10" transform="rotate(90 79 0)" fill="white"/>
<rect x="149" width="10" height="80" transform="rotate(90 149 0)" fill="white"/>
<rect x="269" y="10" width="80" height="10" transform="rotate(-180 269 10)" fill="white"/>
<rect x="269" y="80" width="10" height="80" transform="rotate(-180 269 80)" fill="white"/>
<path d="M141.273 147V53.9091H197.455V63.9091H152.545V95.3636H194.545V105.364H152.545V137H198.182V147H141.273Z" fill="white"/>
<path d="M8.45455 285V215.182H50.5909V222.682H16.9091V246.273H48.4091V253.773H16.9091V277.5H51.1364V285H8.45455ZM80.1477 286.227C76.8295 286.227 73.8182 285.602 71.1136 284.352C68.4091 283.08 66.2614 281.25 64.6705 278.864C63.0795 276.455 62.2841 273.545 62.2841 270.136C62.2841 267.136 62.875 264.705 64.0568 262.841C65.2386 260.955 66.8182 259.477 68.7955 258.409C70.7727 257.341 72.9545 256.545 75.3409 256.023C77.75 255.477 80.1705 255.045 82.6023 254.727C85.7841 254.318 88.3636 254.011 90.3409 253.807C92.3409 253.58 93.7955 253.205 94.7045 252.682C95.6364 252.159 96.1023 251.25 96.1023 249.955V249.682C96.1023 246.318 95.1818 243.705 93.3409 241.841C91.5227 239.977 88.7614 239.045 85.0568 239.045C81.2159 239.045 78.2045 239.886 76.0227 241.568C73.8409 243.25 72.3068 245.045 71.4205 246.955L63.7841 244.227C65.1477 241.045 66.9659 238.568 69.2386 236.795C71.5341 235 74.0341 233.75 76.7386 233.045C79.4659 232.318 82.1477 231.955 84.7841 231.955C86.4659 231.955 88.3977 232.159 90.5795 232.568C92.7841 232.955 94.9091 233.761 96.9545 234.989C99.0227 236.216 100.739 238.068 102.102 240.545C103.466 243.023 104.148 246.341 104.148 250.5V285H96.1023V277.909H95.6932C95.1477 279.045 94.2386 280.261 92.9659 281.557C91.6932 282.852 90 283.955 87.8864 284.864C85.7727 285.773 83.1932 286.227 80.1477 286.227ZM81.375 279C84.5568 279 87.2386 278.375 89.4205 277.125C91.625 275.875 93.2841 274.261 94.3977 272.284C95.5341 270.307 96.1023 268.227 96.1023 266.045V258.682C95.7614 259.091 95.0114 259.466 93.8523 259.807C92.7159 260.125 91.3977 260.409 89.8977 260.659C88.4205 260.886 86.9773 261.091 85.5682 261.273C84.1818 261.432 83.0568 261.568 82.1932 261.682C80.1023 261.955 78.1477 262.398 76.3295 263.011C74.5341 263.602 73.0795 264.5 71.9659 265.705C70.875 266.886 70.3295 268.5 70.3295 270.545C70.3295 273.341 71.3636 275.455 73.4318 276.886C75.5227 278.295 78.1705 279 81.375 279ZM155.923 244.364L148.696 246.409C148.241 245.205 147.571 244.034 146.685 242.898C145.821 241.739 144.639 240.784 143.139 240.034C141.639 239.284 139.719 238.909 137.378 238.909C134.173 238.909 131.503 239.648 129.366 241.125C127.253 242.58 126.196 244.432 126.196 246.682C126.196 248.682 126.923 250.261 128.378 251.42C129.832 252.58 132.105 253.545 135.196 254.318L142.969 256.227C147.651 257.364 151.139 259.102 153.435 261.443C155.73 263.761 156.878 266.75 156.878 270.409C156.878 273.409 156.014 276.091 154.287 278.455C152.582 280.818 150.196 282.682 147.128 284.045C144.06 285.409 140.491 286.091 136.423 286.091C131.082 286.091 126.662 284.932 123.162 282.614C119.662 280.295 117.446 276.909 116.514 272.455L124.151 270.545C124.878 273.364 126.253 275.477 128.276 276.886C130.321 278.295 132.991 279 136.287 279C140.037 279 143.014 278.205 145.219 276.614C147.446 275 148.56 273.068 148.56 270.818C148.56 269 147.923 267.477 146.651 266.25C145.378 265 143.423 264.068 140.787 263.455L132.06 261.409C127.264 260.273 123.741 258.511 121.491 256.125C119.264 253.716 118.151 250.705 118.151 247.091C118.151 244.136 118.98 241.523 120.639 239.25C122.321 236.977 124.605 235.193 127.491 233.898C130.401 232.602 133.696 231.955 137.378 231.955C142.56 231.955 146.628 233.091 149.582 235.364C152.56 237.636 154.673 240.636 155.923 244.364ZM174.17 304.636C172.807 304.636 171.591 304.523 170.523 304.295C169.455 304.091 168.716 303.886 168.307 303.682L170.352 296.591C172.307 297.091 174.034 297.273 175.534 297.136C177.034 297 178.364 296.33 179.523 295.125C180.705 293.943 181.784 292.023 182.761 289.364L184.261 285.273L164.898 232.636H173.625L188.08 274.364H188.625L203.08 232.636H211.807L189.58 292.636C188.58 295.341 187.341 297.58 185.864 299.352C184.386 301.148 182.67 302.477 180.716 303.341C178.784 304.205 176.602 304.636 174.17 304.636ZM223.517 285V215.182H247.108C252.563 215.182 257.04 216.114 260.54 217.977C264.04 219.818 266.631 222.352 268.312 225.58C269.994 228.807 270.835 232.477 270.835 236.591C270.835 240.705 269.994 244.352 268.312 247.534C266.631 250.716 264.051 253.216 260.574 255.034C257.097 256.83 252.653 257.727 247.244 257.727H228.153V250.091H246.972C250.699 250.091 253.699 249.545 255.972 248.455C258.267 247.364 259.926 245.818 260.949 243.818C261.994 241.795 262.517 239.386 262.517 236.591C262.517 233.795 261.994 231.352 260.949 229.261C259.903 227.17 258.233 225.557 255.938 224.42C253.642 223.261 250.608 222.682 246.835 222.682H231.972V285H223.517ZM256.381 253.636L273.562 285H263.744L246.835 253.636H256.381ZM284.923 285V215.182H308.514C313.991 215.182 318.469 216.17 321.946 218.148C325.446 220.102 328.037 222.75 329.719 226.091C331.401 229.432 332.241 233.159 332.241 237.273C332.241 241.386 331.401 245.125 329.719 248.489C328.06 251.852 325.491 254.534 322.014 256.534C318.537 258.511 314.082 259.5 308.651 259.5H291.741V252H308.378C312.128 252 315.139 251.352 317.412 250.057C319.685 248.761 321.332 247.011 322.355 244.807C323.401 242.58 323.923 240.068 323.923 237.273C323.923 234.477 323.401 231.977 322.355 229.773C321.332 227.568 319.673 225.841 317.378 224.591C315.082 223.318 312.037 222.682 308.241 222.682H293.378V285H284.923Z" fill="white"/>
</svg>
